<?xml version="1.0" encoding="utf-8"?>
<!-- Generator: Adobe Illustrator 16.0.3, SVG Export Plug-In . SVG Version: 6.00 Build 0)  -->
<!DOCTYPE svg PUBLIC "-//W3C//DTD SVG 1.1//EN" "http://www.w3.org/Graphics/SVG/1.1/DTD/svg11.dtd">
<svg version="1.1" id="Layer_1" xmlns="http://www.w3.org/2000/svg" xmlns:xlink="http://www.w3.org/1999/xlink" x="0px" y="0px"
	 width="182.353px" height="112.605px" viewBox="0 0 182.353 112.605" enable-background="new 0 0 182.353 112.605"
	 xml:space="preserve">
<g>
	<rect x="143.916" y="21.587" width="5.469" height="1.176"/>
	<path d="M155.167,21.587h-2.5v1.176h1.912v1.912h1.176v-2.5C155.754,21.85,155.492,21.587,155.167,21.587z"/>
	<rect x="154.579" y="27.909" width="1.176" height="5.39"/>
	<rect x="154.579" y="36.532" width="1.176" height="5.389"/>
	<rect x="154.579" y="45.154" width="1.176" height="5.39"/>
	<path d="M154.579,55.689h-17.548V22.763h3.604v-1.176h-4.088c-0.043-0.01-0.084-0.026-0.13-0.026H14.161
		c-0.339,0-0.614,0.275-0.614,0.614v34.102c0,0.339,0.275,0.614,0.614,0.614h12.912v33.487c0,0.325,0.263,0.588,0.588,0.588h127.506
		c0.325,0,0.588-0.263,0.588-0.588V56.277v-2.5h-1.176V55.689z M154.579,89.791H28.249V56.891h108.168
		c0.046,0,0.087-0.017,0.13-0.026h18.032V89.791z"/>
</g>
<g>
	<path fill="#FFFFFF" d="M34.221,40.163v-0.055c0-5.545,4.144-10.137,9.912-10.137c3.556,0,5.684,1.26,7.644,3.107l-1.512,1.625
		c-1.652-1.568-3.5-2.688-6.16-2.688c-4.34,0-7.588,3.528-7.588,8.036v0.057c0,4.535,3.275,8.092,7.588,8.092
		c2.688,0,4.452-1.037,6.328-2.828l1.456,1.428c-2.044,2.072-4.284,3.443-7.84,3.443C38.393,50.243,34.221,45.792,34.221,40.163z"/>
	<path fill="#FFFFFF" d="M61.325,30.167h2.071l8.933,19.739h-2.381l-2.296-5.18H56.984l-2.323,5.18h-2.269L61.325,30.167z
		 M66.785,42.739l-4.452-9.996l-4.48,9.996H66.785z"/>
	<path fill="#FFFFFF" d="M74.513,30.307h8.428c2.408,0,4.34,0.729,5.571,1.96c0.952,0.952,1.513,2.324,1.513,3.864v0.057
		c0,3.247-2.24,5.151-5.32,5.711l6.021,8.008h-2.717l-5.684-7.615h-5.6v7.615h-2.212V30.307z M82.745,40.303
		c2.94,0,5.04-1.512,5.04-4.031v-0.057c0-2.408-1.848-3.864-5.012-3.864h-6.048v7.952H82.745z"/>
	<path fill="#FFFFFF" d="M92.208,40.163v-0.055c0-5.377,3.947-10.137,9.828-10.137c3.304,0,5.348,0.952,7.308,2.604l-1.428,1.681
		c-1.513-1.315-3.192-2.24-5.965-2.24c-4.34,0-7.447,3.668-7.447,8.036v0.057c0,4.676,2.996,8.147,7.756,8.147
		c2.24,0,4.312-0.868,5.656-1.96v-4.872h-5.965v-1.988h8.093v7.812c-1.82,1.625-4.564,2.996-7.868,2.996
		C96.016,50.243,92.208,45.763,92.208,40.163z"/>
	<path fill="#FFFFFF" d="M112.48,40.163v-0.055c0-5.404,4.06-10.137,10.023-10.137s9.968,4.676,9.968,10.08v0.057
		c0,5.403-4.06,10.135-10.023,10.135S112.48,45.567,112.48,40.163z M130.175,40.163v-0.055c0-4.453-3.248-8.093-7.728-8.093
		c-4.48,0-7.672,3.584-7.672,8.036v0.057c0,4.451,3.248,8.092,7.728,8.092C126.984,48.2,130.175,44.616,130.175,40.163z"/>
</g>
<g>
	<path d="M34.221,74.44v-0.055c0-5.377,3.947-10.137,9.828-10.137c3.304,0,5.348,0.951,7.308,2.604l-1.428,1.68
		c-1.513-1.314-3.192-2.238-5.964-2.238c-4.341,0-7.448,3.668-7.448,8.035v0.057c0,4.676,2.996,8.146,7.756,8.146
		c2.24,0,4.312-0.867,5.656-1.959V75.7h-5.964v-1.986h8.092v7.811c-1.82,1.625-4.564,2.996-7.868,2.996
		C38.029,84.52,34.221,80.042,34.221,74.44z"/>
	<path d="M54.801,64.584h8.428c2.408,0,4.34,0.729,5.571,1.961c0.952,0.951,1.513,2.322,1.513,3.863v0.057
		c0,3.248-2.24,5.15-5.32,5.711l6.021,8.008h-2.717l-5.684-7.615h-5.6v7.615h-2.212V64.584z M63.033,74.581
		c2.94,0,5.04-1.512,5.04-4.031v-0.057c0-2.408-1.848-3.863-5.012-3.863h-6.048v7.951H63.033z"/>
	<path d="M80.057,64.444h2.071l8.933,19.74H88.68l-2.296-5.18H75.716l-2.323,5.18h-2.269L80.057,64.444z M85.517,77.016
		l-4.452-9.996l-4.48,9.996H85.517z"/>
	<path d="M92.685,64.584h14.083v2.045H94.897v7h10.611v2.016H94.897v8.539h-2.212V64.584z"/>
	<path d="M109.008,64.584h2.212v19.6h-2.212V64.584z M112.033,59.237l2.212,1.008l-3.22,2.604h-1.792L112.033,59.237z"/>
	<path d="M121.972,64.444h2.071l8.933,19.74h-2.381l-2.296-5.18h-10.668l-2.323,5.18h-2.269L121.972,64.444z M127.432,77.016
		l-4.452-9.996l-4.48,9.996H127.432z"/>
	<path d="M132.92,81.329l1.372-1.625c2.044,1.85,4.004,2.773,6.72,2.773c2.632,0,4.368-1.4,4.368-3.332v-0.057
		c0-1.82-0.98-2.855-5.097-3.725c-4.508-0.979-6.58-2.436-6.58-5.654v-0.057c0-3.08,2.717-5.348,6.44-5.348
		c2.855,0,4.9,0.811,6.888,2.408l-1.288,1.707c-1.819-1.484-3.64-2.127-5.655-2.127c-2.549,0-4.172,1.398-4.172,3.164v0.055
		c0,1.848,1.008,2.885,5.319,3.809c4.368,0.951,6.384,2.547,6.384,5.543v0.057c0,3.359-2.8,5.545-6.691,5.545
		C137.82,84.465,135.272,83.428,132.92,81.329z"/>
</g>
<g>
</g>
<g>
</g>
<g>
</g>
<g>
</g>
<g>
</g>
<g>
</g>
</svg>
